<svg class="img-fluid" id="outputsvg"
    xmlns="http://www.w3.org/2000/svg" width="420" height="415" viewBox="0 0 4200 4150" style="transform: matrix(0.6591, 0, 0, 0.6591, 0, 0); transform-origin: 50% 50%; cursor: move; max-height: 351.34px; transition: transform 200ms ease-in-out 0s;">
    <g id="l1VkMvYOP3X3mjLDPi0PlAf" fill="rgb(212,183,131)" style="transform: none;">
        <g style="transform: none;">
            <path id="pL9o2O1uP" d="M0 4127 c0 -16 142 -164 523 -545 l522 -522 50 50 50 50 -495 495 -495 495 -77 0 c-74 0 -78 -1 -78 -23z"></path>
            <path id="pVpn61LEY" d="M663 3652 c274 -274 494 -502 490 -507 -4 -4 -2 -5 5 -1 37 22 8 55 -466 529 -374 374 -482 477 -502 477 -20 0 69 -94 473 -498z"></path>
        </g>
    </g>
    <g id="l3dk3lBragNPPBeY4NcpJRI" fill="rgb(255,133,152)" style="transform: none;">
        <g style="transform: none;">
            <path id="pPwAQCycv" d="M2490 3387 c0 -8 8 -18 18 -20 9 -3 -12 -5 -48 -5 -39 0 -57 2 -46 7 34 13 -1 24 -52 16 -78 -11 -262 -56 -262 -65 0 -4 -18 -10 -40 -14 -26 -4 -40 -11 -40 -21 0 -20 9 -19 69 5 59 23 202 60 228 59 10 0 -25 -11 -77 -24 -463 -115 -831 -459 -981 -917 -32 -98 -58 -233 -60 -307 -1 -25 -3 -38 -6 -28 -8 29 -33 20 -33 -12 0 -34 16 -50 23 -24 3 10 5 -9 5 -42 0 -33 -2 -52 -5 -42 -7 28 -23 9 -23 -29 0 -36 25 -49 32 -16 2 9 7 -14 11 -53 10 -105 42 -208 102 -330 62 -127 107 -191 208 -293 115 -117 262 -208 425 -262 101 -33 97 -40 -4 -9 -89 28 -223 95 -299 151 -85 62 -85 62 -85 38 0 -13 8 -24 19 -27 11 -3 22 -11 25 -19 3 -8 12 -14 21 -14 8 0 15 -4 15 -10 0 -5 7 -10 15 -10 8 0 15 -4 15 -10 0 -5 11 -10 25 -10 14 0 25 -6 25 -13 0 -15 101 -67 130 -67 11 0 20 -4 20 -9 0 -12 159 -55 207 -56 24 0 43 -3 43 -7 0 -11 48 -10 55 1 3 6 -11 13 -32 16 -58 10 -64 16 -9 10 27 -3 94 -6 150 -6 56 -1 93 -3 83 -6 -9 -2 -15 -9 -12 -14 7 -11 65 -12 65 -1 0 4 17 7 38 8 43 0 152 33 152 45 0 5 9 9 20 9 23 0 70 20 70 31 0 4 11 10 25 13 14 4 25 11 25 16 0 6 7 10 15 10 8 0 15 7 15 15 0 8 9 15 20 15 14 0 20 7 20 21 0 20 -1 21 -22 5 -126 -90 -308 -167 -388 -165 -14 0 5 7 41 15 247 53 470 232 579 466 32 67 69 201 71 252 1 17 3 23 6 14 8 -33 33 -20 33 16 0 38 -16 57 -23 29 -3 -10 -5 9 -5 42 0 33 2 52 5 42 2 -9 9 -15 14 -12 13 8 11 65 -2 65 -5 0 -7 5 -4 10 12 19 -6 90 -22 90 -11 0 -14 -6 -9 -22 3 -13 8 -43 11 -68 4 -35 2 -30 -10 20 -19 85 -82 212 -137 277 -87 104 -200 176 -338 213 -41 11 -57 18 -35 15 22 -3 50 -8 63 -11 16 -5 22 -2 22 9 0 10 -19 18 -65 27 -68 13 -120 6 -80 -10 13 -6 -4 -9 -50 -9 -46 0 -63 3 -50 9 18 7 19 8 2 15 -32 13 -167 -20 -167 -42 0 -17 8 -16 60 2 23 8 52 15 64 14 11 0 -3 -7 -31 -14 -178 -48 -333 -214 -362 -386 -5 -30 -9 -46 -10 -36 0 9 -8 17 -16 17 -16 0 -21 -70 -9 -142 10 -56 36 -51 29 5 -5 40 -5 40 10 -11 21 -76 41 -111 94 -165 50 -53 101 -83 171 -103 25 -7 37 -13 28 -13 -10 -1 -18 -8 -18 -17 0 -14 11 -16 83 -12 95 6 167 31 167 59 0 17 -4 16 -52 -6 -29 -14 -62 -25 -73 -25 -11 1 4 9 33 19 98 34 163 119 178 231 10 84 49 142 94 139 10 0 11 -2 3 -6 -29 -11 -10 -23 37 -23 47 0 66 12 38 23 -9 4 -8 6 2 6 48 3 90 -64 90 -141 0 -159 -94 -330 -233 -421 -54 -35 -155 -77 -185 -77 -9 0 12 11 48 23 36 12 85 34 110 49 61 36 128 100 112 106 -22 7 -42 -6 -42 -28 0 -15 -7 -20 -25 -20 -14 0 -28 -7 -31 -15 -4 -8 -12 -15 -19 -15 -8 0 -20 -6 -27 -13 -15 -14 -135 -57 -160 -57 -10 0 -18 -6 -18 -14 0 -8 8 -17 18 -19 9 -3 -26 -5 -78 -5 -52 0 -87 2 -77 5 38 10 13 29 -63 47 -73 17 -104 17 -87 0 3 -4 35 -15 69 -25 42 -13 50 -17 24 -13 -159 23 -339 165 -420 328 -184 372 36 861 447 991 43 14 88 24 100 24 20 -1 20 -2 2 -6 -65 -14 -155 -45 -155 -53 0 -15 28 -12 98 10 35 11 75 20 88 20 28 0 33 26 7 33 -10 3 5 5 32 5 28 0 42 -2 32 -5 -30 -8 -8 -23 33 -23 41 0 63 15 33 23 -10 3 7 5 37 5 30 0 47 -2 38 -5 -10 -2 -18 -11 -18 -20 0 -11 8 -14 35 -11 19 2 36 1 37 -2 2 -3 30 -13 63 -24 71 -21 195 -75 213 -93 7 -7 20 -13 28 -13 8 0 14 -4 14 -10 0 -5 9 -10 20 -10 11 0 20 -7 20 -15 0 -10 10 -15 28 -15 l27 1 -30 25 c-86 72 -252 149 -376 173 -31 6 -36 9 -17 10 46 2 208 -56 298 -106 114 -64 266 -215 329 -326 94 -167 126 -306 118 -507 -11 -272 -104 -495 -294 -700 -166 -179 -430 -316 -645 -334 -34 -3 -55 -3 -45 0 31 10 7 24 -39 24 -31 0 -44 -4 -44 -14 0 -8 8 -17 18 -19 9 -3 -10 -5 -43 -5 -33 0 -52 2 -42 5 9 2 17 11 17 19 0 10 -13 14 -44 14 -46 0 -70 -15 -39 -23 10 -3 -2 -5 -27 -5 -25 0 -37 2 -27 5 9 2 17 11 17 20 0 11 -8 14 -35 11 -19 -2 -36 -1 -37 2 -2 3 -34 13 -73 23 -107 26 -159 41 -165 47 -12 12 -102 50 -120 50 -36 0 -21 -17 38 -42 83 -37 139 -57 218 -78 38 -10 62 -19 53 -19 -30 -2 -184 47 -276 88 -412 181 -703 559 -778 1011 -13 75 -20 403 -8 358 8 -30 33 -21 33 11 0 34 -16 50 -23 24 -3 -10 -5 0 -5 22 0 22 2 32 5 23 8 -30 33 -21 33 11 0 34 -16 50 -24 24 -3 -10 -3 6 0 35 7 77 79 320 91 308 3 -2 -7 -36 -21 -76 -30 -82 -31 -90 -12 -90 14 0 26 29 26 68 0 12 5 22 10 22 11 0 14 59 4 84 -3 9 -16 16 -29 16 -18 0 -30 -16 -67 -97 -87 -188 -132 -362 -148 -571 -46 -596 212 -1140 690 -1459 459 -307 1097 -345 1594 -96 100 50 167 92 179 110 4 7 14 13 21 13 22 0 198 154 269 236 289 333 424 750 387 1196 -19 237 -62 395 -160 593 -148 297 -381 535 -670 684 -180 93 -377 153 -555 168 -64 5 -75 4 -75 -10z m-422 -2714 c-10 -2 -26 -2 -35 0 -10 3 -2 5 17 5 19 0 27 -2 18 -5z"></path>
            <path id="pwBbqu4c8" d="M1915 3248 c-22 -11 -41 -25 -43 -29 -2 -5 -10 -9 -18 -9 -8 0 -14 -7 -14 -15 0 -9 -9 -15 -25 -15 -14 0 -25 -4 -25 -10 0 -5 -7 -10 -15 -10 -8 0 -15 -4 -15 -10 0 -5 -7 -10 -15 -10 -9 0 -18 -7 -21 -15 -4 -8 -13 -15 -21 -15 -8 0 -17 -9 -20 -20 -3 -11 -13 -20 -22 -20 -24 0 -64 -44 -59 -66 2 -14 15 -7 63 35 72 64 199 149 278 187 31 16 57 32 57 36 0 15 -45 7 -85 -14z"></path>
            <path id="pUCbGVc5b" d="M1507 2932 c-10 -10 -17 -28 -17 -40 0 -15 -6 -22 -20 -22 -11 0 -20 -6 -20 -14 0 -8 -7 -16 -15 -20 -8 -3 -15 -12 -15 -21 0 -8 -4 -15 -10 -15 -5 0 -10 -7 -10 -15 0 -8 -4 -15 -10 -15 -5 0 -10 -7 -10 -15 0 -8 -4 -15 -9 -15 -5 0 -13 -10 -17 -22 -4 -13 -10 -25 -14 -28 -14 -9 -60 -109 -60 -130 0 -11 -4 -20 -10 -20 -5 0 -10 -11 -10 -24 0 -13 -5 -26 -10 -28 -14 -4 -26 -78 -13 -78 6 0 21 28 33 63 50 137 162 327 251 424 22 24 39 45 39 48 0 13 -39 3 -53 -13z"></path>
            <path id="p3WCi8ML7" d="M2043 2515 c-64 -43 -72 -55 -38 -55 14 0 28 7 31 15 4 8 12 15 20 15 8 0 14 5 14 10 0 6 7 10 15 10 8 0 15 9 15 20 0 11 -1 20 -3 20 -1 0 -26 -16 -54 -35z"></path>
            <path id="p191wkaRWA" d="M1935 2425 c-27 -26 -28 -30 -11 -33 24 -5 49 20 44 44 -3 17 -7 16 -33 -11z"></path>
            <path id="pH39v0Sj7" d="M986 2397 c-9 -33 -8 -37 9 -37 9 0 15 9 15 24 0 33 -16 42 -24 13z"></path>
            <path id="peWaL6JNx" d="M3040 2402 c0 -25 54 -75 75 -70 16 3 14 7 -10 36 -37 44 -65 59 -65 34z"></path>
            <path id="puNzCO2c8" d="M1867 2347 c-65 -86 -123 -224 -142 -339 -5 -31 -3 -38 11 -38 12 0 15 7 12 30 -2 16 0 31 5 33 5 1 10 24 11 50 0 26 6 47 11 47 10 0 45 75 45 98 0 6 5 12 10 12 6 0 10 11 10 25 0 16 6 25 15 25 8 0 15 9 15 20 0 11 7 20 15 20 9 0 15 9 15 25 0 32 -3 32 -33 -8z"></path>
            <path id="phuJQgokg" d="M2670 2373 c1 -5 36 -25 79 -46 44 -21 105 -62 140 -93 55 -51 61 -54 61 -32 0 30 -17 48 -47 48 -16 0 -23 6 -23 20 0 13 -7 20 -20 20 -11 0 -20 7 -20 15 0 8 -11 17 -25 21 -14 3 -25 10 -25 14 0 10 -75 40 -100 40 -11 0 -20 -3 -20 -7z"></path>
            <path id="pf3A3bPeH" d="M1190 2294 c-9 -45 -9 -69 -2 -76 7 -7 14 7 21 43 7 30 14 64 17 76 4 16 2 23 -9 23 -10 0 -18 -20 -27 -66z"></path>
            <path id="pJYfsLIIT" d="M2170 2336 c0 -8 -10 -16 -22 -18 -15 -2 -24 -11 -26 -26 -3 -20 -1 -22 15 -13 10 6 34 24 53 40 l35 30 -27 1 c-18 0 -28 -5 -28 -14z"></path>
            <path id="p81HZRjZm" d="M3140 2297 c0 -17 5 -27 15 -27 8 0 15 -9 15 -20 0 -11 7 -20 15 -20 9 0 15 -9 15 -25 0 -14 4 -25 9 -25 5 0 12 -11 15 -25 6 -25 36 -36 36 -12 0 13 -82 142 -106 167 -12 12 -14 11 -14 -13z"></path>
            <path id="pB2r73N4n" d="M2047 2233 c-4 -3 -7 -17 -7 -31 0 -21 2 -23 16 -12 8 8 20 22 25 32 8 14 6 18 -9 18 -10 0 -22 -3 -25 -7z"></path>
            <path id="pSZWCDcNG" d="M1170 2176 c0 -14 5 -28 10 -31 6 -3 10 -3 10 2 0 4 3 18 6 31 5 16 2 22 -10 22 -10 0 -16 -9 -16 -24z"></path>
            <path id="p120JEaYF4" d="M1992 2145 c-7 -14 -12 -35 -12 -45 0 -11 -4 -20 -9 -20 -13 0 -25 -80 -13 -92 6 -6 13 7 21 38 7 25 23 68 37 95 23 46 23 49 6 49 -10 0 -24 -11 -30 -25z"></path>
            <path id="p111BFRcDd" d="M2966 2158 c38 -61 69 -99 72 -89 7 21 -8 61 -23 61 -8 0 -15 9 -15 20 0 14 -7 20 -21 20 -13 0 -18 -4 -13 -12z"></path>
            <path id="pasJ80ZRY" d="M3270 2075 c0 -21 44 -169 51 -173 3 -1 3 -16 1 -32 -3 -23 0 -30 12 -30 9 0 16 3 16 8 -1 19 -32 152 -46 194 -15 46 -34 64 -34 33z"></path>
            <path id="pQP4sprtw" d="M3060 2001 c0 -17 12 -41 21 -41 5 0 9 11 9 25 0 16 -6 25 -15 25 -8 0 -15 -4 -15 -9z"></path>
            <path id="p1FgLw9Ons" d="M2627 1870 c-21 -30 -22 -50 -2 -50 15 0 30 40 23 61 -3 8 -11 4 -21 -11z"></path>
            <path id="pmQIZm7Fj" d="M2810 1873 c0 -31 10 -53 26 -53 20 0 17 24 -6 51 -19 24 -19 24 -20 2z"></path>
            <path id="pBmqohdZj" d="M944 1840 c3 -16 9 -44 12 -60 3 -17 10 -28 15 -24 11 7 12 54 1 54 -5 0 -7 14 -4 30 3 23 0 30 -13 30 -13 0 -15 -6 -11 -30z"></path>
            <path id="p3Em00gFP" d="M1178 1854 c-11 -10 -10 -54 1 -54 5 0 7 -8 4 -19 -8 -31 37 -181 54 -181 10 0 13 6 10 18 -6 21 -46 177 -55 215 -4 16 -10 25 -14 21z"></path>
            <path id="pt9Wt4dVw" d="M1724 1820 c3 -16 9 -44 12 -60 3 -17 10 -28 15 -24 11 7 12 54 1 54 -5 0 -7 14 -4 30 3 23 0 30 -13 30 -13 0 -15 -6 -11 -30z"></path>
            <path id="pWVmNkrUl" d="M2601 1760 c-6 -28 -20 -69 -31 -90 -20 -39 -20 -40 -1 -40 22 0 45 51 56 122 10 64 -11 71 -24 8z"></path>
            <path id="p11k3vC7HY" d="M1980 1742 c0 -37 28 -82 51 -82 20 0 20 0 -2 38 -12 20 -28 44 -36 52 -11 12 -13 11 -13 -8z"></path>
            <path id="pHUFbrzj5" d="M2820 1733 c0 -26 -43 -146 -57 -161 -7 -7 -13 -19 -13 -27 0 -7 -5 -15 -11 -17 -6 -2 -9 -15 -7 -28 3 -23 6 -21 36 25 35 53 65 129 76 188 6 30 4 37 -9 37 -8 0 -15 -8 -15 -17z"></path>
            <path id="p1GP5YqhLU" d="M974 1683 c19 -79 38 -133 46 -133 14 0 13 15 -7 93 -11 42 -23 67 -31 67 -10 0 -12 -8 -8 -27z"></path>
            <path id="p1Aixt4nRk" d="M1760 1691 c0 -17 12 -41 21 -41 5 0 9 11 9 25 0 16 -6 25 -15 25 -8 0 -15 -4 -15 -9z"></path>
            <path id="p7vp7Mmrv" d="M3320 1626 c0 -14 5 -28 10 -31 6 -3 10 -3 10 2 0 4 3 18 6 31 5 16 2 22 -10 22 -10 0 -16 -9 -16 -24z"></path>
            <path id="pUtAzcXN8" d="M3091 1589 c-7 -30 -14 -64 -17 -76 -4 -16 -2 -23 9 -23 19 0 45 126 29 142 -7 7 -14 -7 -21 -43z"></path>
            <path id="paoCZHkut" d="M1801 1598 c36 -70 121 -158 206 -214 57 -37 73 -42 73 -19 0 9 -9 15 -25 15 -16 0 -25 6 -25 15 0 8 -6 15 -14 15 -8 0 -16 7 -20 15 -3 8 -17 15 -31 15 -18 0 -25 5 -25 18 0 23 -30 52 -53 52 -11 0 -17 8 -17 25 0 15 -6 25 -14 25 -7 0 -16 14 -19 30 -5 22 -12 30 -27 30 -18 0 -19 -3 -9 -22z"></path>
            <path id="pzYV1SSzA" d="M2090 1601 c0 -21 44 -51 75 -51 8 0 15 -4 15 -10 0 -5 11 -10 24 -10 14 0 28 5 31 10 3 6 0 10 -7 10 -14 0 -53 19 -105 51 l-33 21 0 -21z"></path>
            <path id="puau4v2nX" d="M3310 1556 c0 -14 5 -28 10 -31 6 -3 10 -3 10 2 0 4 3 18 6 31 5 16 2 22 -10 22 -10 0 -16 -9 -16 -24z"></path>
            <path id="pwIEnAOkV" d="M1030 1511 c0 -17 12 -41 21 -41 5 0 9 11 9 25 0 16 -6 25 -15 25 -8 0 -15 -4 -15 -9z"></path>
            <path id="p11lwrnwE7" d="M3042 1427 c-26 -62 -26 -67 -8 -67 15 0 46 68 46 100 0 35 -16 22 -38 -33z"></path>
            <path id="p1851AHfUE" d="M1310 1438 c0 -18 5 -28 15 -28 9 0 15 -9 15 -25 0 -16 6 -25 15 -25 8 0 15 -9 15 -20 0 -11 7 -20 15 -20 8 0 15 -9 15 -20 0 -11 7 -23 15 -26 36 -14 31 7 -20 76 -30 41 -61 84 -69 95 -15 19 -15 19 -16 -7z"></path>
            <path id="pE42SnBmp" d="M3272 1421 c-7 -21 -12 -44 -12 -50 0 -7 -7 -19 -15 -27 -16 -17 -21 -64 -6 -64 9 0 71 148 71 170 0 26 -28 6 -38 -29z"></path>
            <path id="p1HiUTHpxu" d="M1070 1418 c0 -28 178 -298 196 -298 2 0 4 12 4 26 0 17 -6 28 -20 31 -11 3 -20 14 -20 24 0 11 -7 19 -15 19 -8 0 -15 9 -15 20 0 11 -4 20 -10 20 -5 0 -10 7 -10 15 0 8 -7 15 -15 15 -9 0 -15 9 -15 25 0 16 -6 25 -15 25 -8 0 -15 9 -15 20 0 29 -21 70 -37 70 -7 0 -13 -6 -13 -12z"></path>
            <path id="pvAjFOAj2" d="M2975 1295 c-60 -89 -59 -85 -36 -85 14 0 21 6 21 20 0 11 6 20 14 20 8 0 18 10 22 23 4 12 11 25 16 28 5 4 8 17 6 30 -3 21 -8 17 -43 -36z"></path>
            <path id="p1A9HThwMP" d="M1470 1225 c0 -20 5 -25 27 -25 l26 0 -23 25 c-13 14 -25 25 -27 25 -2 0 -3 -11 -3 -25z"></path>
            <path id="p1Eu6oGKfP" d="M3180 1220 c0 -12 -25 -45 -66 -85 -17 -17 -35 -41 -38 -53 -4 -12 -28 -42 -53 -65 -31 -30 -44 -49 -41 -63 4 -16 13 -11 59 36 57 57 119 138 158 203 23 37 23 37 2 37 -12 0 -21 -4 -21 -10z"></path>
            <path id="pDkIthdFv" d="M2855 1151 c-38 -40 -39 -41 -14 -41 32 0 62 31 57 60 -3 19 -6 18 -43 -19z"></path>
            <path id="p9w92b0YZ" d="M1310 1071 c5 -11 20 -27 33 -36 20 -14 22 -14 25 0 5 22 -26 55 -50 55 -15 0 -17 -3 -8 -19z"></path>
            <path id="p1Ca2ii7um" d="M1400 986 c0 -4 95 -76 118 -90 8 -5 12 0 12 13 0 14 -6 21 -20 21 -11 0 -20 7 -20 15 0 8 -9 15 -20 15 -11 0 -20 7 -20 15 0 9 -9 15 -25 15 -14 0 -25 -2 -25 -4z"></path>
            <path id="pO9pVzC3h" d="M2914 915 c-4 -8 -13 -15 -20 -15 -8 0 -17 -7 -20 -15 -4 -8 -12 -15 -20 -15 -8 0 -14 -4 -14 -10 0 -5 -6 -10 -14 -10 -8 0 -21 -6 -28 -13 -7 -7 -32 -21 -55 -31 -24 -11 -43 -23 -43 -28 0 -4 -6 -8 -14 -8 -8 0 -55 -13 -104 -30 -50 -16 -97 -30 -106 -30 -9 0 -16 -4 -16 -8 0 -5 -13 -7 -30 -4 -23 3 -30 0 -30 -12 0 -13 7 -15 43 -10 68 11 197 50 272 84 71 32 222 127 245 155 11 13 9 15 -14 15 -15 0 -29 -7 -32 -15z"></path>
            <path id="p15mLtZTHb" d="M1550 877 c8 -8 32 -24 53 -36 37 -23 37 -23 37 -2 0 16 -6 21 -25 21 -16 0 -25 6 -25 15 0 10 -10 15 -27 15 -23 0 -25 -2 -13 -13z"></path>
        </g>
    </g>
    <g id="l2AaatPTNENFFWKwpBRNlPF" fill="rgb(0,0,0)" style="transform: none;">
        <g style="transform: none;">
            <path id="pu9dMCsVq" d="M663 3652 l497 -497 -53 -53 c-29 -28 -57 -52 -62 -52 -6 0 -243 233 -527 517 l-518 518 0 -170 0 -170 447 -447 446 -446 -41 -64 c-335 -519 -373 -1202 -97 -1764 250 -509 724 -872 1287 -986 98 -20 143 -23 343 -23 248 0 307 7 502 64 297 85 542 232 773 461 285 284 455 620 516 1020 19 125 21 369 5 490 -96 696 -573 1274 -1228 1489 -216 71 -315 86 -573 85 -206 0 -236 -2 -355 -28 -215 -45 -417 -125 -585 -229 -41 -26 -79 -47 -85 -47 -5 0 -197 187 -425 415 l-415 415 -175 0 -175 0 498 -498z m2002 -303 c488 -101 879 -399 1095 -834 67 -136 102 -234 131 -370 85 -411 4 -842 -225 -1185 -358 -535 -990 -794 -1612 -659 -751 162 -1270 862 -1213 1635 15 207 64 385 161 582 33 68 62 121 64 119 3 -2 -5 -25 -16 -51 -27 -63 -65 -193 -87 -296 -25 -122 -25 -440 0 -560 122 -569 581 -991 1152 -1059 166 -20 318 -7 468 39 356 110 634 400 734 765 25 90 28 116 28 265 0 181 -10 234 -67 365 -154 351 -530 575 -895 534 -299 -33 -544 -238 -635 -529 -31 -100 -33 -296 -4 -380 75 -218 233 -370 443 -424 79 -21 214 -20 284 0 220 65 379 269 379 487 0 54 -3 62 -33 92 -56 56 -111 58 -168 7 -25 -23 -33 -40 -44 -103 -14 -85 -40 -142 -82 -180 -119 -111 -317 -95 -448 36 -88 88 -121 193 -104 329 28 225 219 403 453 423 242 20 505 -133 613 -357 54 -111 68 -173 67 -295 -2 -358 -225 -672 -561 -790 -222 -77 -509 -53 -748 63 -478 233 -704 741 -574 1292 121 516 554 937 1064 1034 44 8 89 17 100 19 55 12 190 5 280 -14z"></path>
        </g>
    </g>
</svg>